ModelForces
version=1
nRows=4
nColumns=157
inDegrees=no

This file contains the forces exerted on a model during a simulation.

A force is a generalized force, meaning that it can be either a force (N) or a torque (Nm).

Units are S.I. units (second, meters, Newtons, ...)
Angles are in degrees.

endheader
time	glut_med1_r	glut_med2_r	glut_med3_r	glut_min1_r	glut_min2_r	glut_min3_r	semimem_r	semiten_r	bifemlh_r	bifemsh_r	sar_r	add_long_r	add_brev_r	add_mag1_r	add_mag2_r	add_mag3_r	tfl_r	pect_r	grac_r	glut_max1_r	glut_max2_r	glut_max3_r	iliacus_r	psoas_r	quad_fem_r	gem_r	peri_r	rect_fem_r	vas_med_r	vas_int_r	vas_lat_r	med_gas_r	lat_gas_r	soleus_r	tib_post_r	flex_dig_r	flex_hal_r	tib_ant_r	per_brev_r	per_long_r	per_tert_r	ext_dig_r	ext_hal_r	glut_med1_l	glut_med2_l	glut_med3_l	glut_min1_l	glut_min2_l	glut_min3_l	semimem_l	semiten_l	bifemlh_l	bifemsh_l	sar_l	add_long_l	add_brev_l	add_mag1_l	add_mag2_l	add_mag3_l	tfl_l	pect_l	grac_l	glut_max1_l	glut_max2_l	glut_max3_l	iliacus_l	psoas_l	quad_fem_l	gem_l	peri_l	rect_fem_l	vas_med_l	vas_int_l	vas_lat_l	med_gas_l	lat_gas_l	soleus_l	tib_post_l	flex_dig_l	flex_hal_l	tib_ant_l	per_brev_l	per_long_l	per_tert_l	ext_dig_l	ext_hal_l	ercspn_r	ercspn_l	intobl_r	intobl_l	extobl_r	extobl_l	femur_lat_meniscii_r.femur_lat_r.force.X	femur_lat_meniscii_r.femur_lat_r.force.Y	femur_lat_meniscii_r.femur_lat_r.force.Z	femur_lat_meniscii_r.femur_lat_r.torque.X	femur_lat_meniscii_r.femur_lat_r.torque.Y	femur_lat_meniscii_r.femur_lat_r.torque.Z	femur_lat_meniscii_r.meniscus_lat_r.force.X	femur_lat_meniscii_r.meniscus_lat_r.force.Y	femur_lat_meniscii_r.meniscus_lat_r.force.Z	femur_lat_meniscii_r.meniscus_lat_r.torque.X	femur_lat_meniscii_r.meniscus_lat_r.torque.Y	femur_lat_meniscii_r.meniscus_lat_r.torque.Z	femur_med_meniscii_r.femur_med_r.force.X	femur_med_meniscii_r.femur_med_r.force.Y	femur_med_meniscii_r.femur_med_r.force.Z	femur_med_meniscii_r.femur_med_r.torque.X	femur_med_meniscii_r.femur_med_r.torque.Y	femur_med_meniscii_r.femur_med_r.torque.Z	femur_med_meniscii_r.meniscus_med_r.force.X	femur_med_meniscii_r.meniscus_med_r.force.Y	femur_med_meniscii_r.meniscus_med_r.force.Z	femur_med_meniscii_r.meniscus_med_r.torque.X	femur_med_meniscii_r.meniscus_med_r.torque.Y	femur_med_meniscii_r.meniscus_med_r.torque.Z	femur_med_tibia_r.tibia_upper_r.force.X	femur_med_tibia_r.tibia_upper_r.force.Y	femur_med_tibia_r.tibia_upper_r.force.Z	femur_med_tibia_r.tibia_upper_r.torque.X	femur_med_tibia_r.tibia_upper_r.torque.Y	femur_med_tibia_r.tibia_upper_r.torque.Z	femur_med_tibia_r.femur_med_r.force.X	femur_med_tibia_r.femur_med_r.force.Y	femur_med_tibia_r.femur_med_r.force.Z	femur_med_tibia_r.femur_med_r.torque.X	femur_med_tibia_r.femur_med_r.torque.Y	femur_med_tibia_r.femur_med_r.torque.Z	femur_lat_tibia_r.tibia_upper_r.force.X	femur_lat_tibia_r.tibia_upper_r.force.Y	femur_lat_tibia_r.tibia_upper_r.force.Z	femur_lat_tibia_r.tibia_upper_r.torque.X	femur_lat_tibia_r.tibia_upper_r.torque.Y	femur_lat_tibia_r.tibia_upper_r.torque.Z	femur_lat_tibia_r.femur_lat_r.force.X	femur_lat_tibia_r.femur_lat_r.force.Y	femur_lat_tibia_r.femur_lat_r.force.Z	femur_lat_tibia_r.femur_lat_r.torque.X	femur_lat_tibia_r.femur_lat_r.torque.Y	femur_lat_tibia_r.femur_lat_r.torque.Z	aACL_R	pACL_R	aPCL_R	pPCL_R	aMCL_R	mMCL_R	pMCL_R	aLCL_R	mLCL_R	pLCL_R	ground_prescribedForce_fx	ground_prescribedForce_fy	ground_prescribedForce_fz	ground_prescribedForce_px	ground_prescribedForce_py	ground_prescribedForce_pz
      0.45984359	      7.63019471	      5.72241017	      6.12611877	      2.68439089	      3.20648150	      3.22745938	      4.22518486	      3.90901533	      6.27572333	      6.89320474	      1.48959789	      5.67007104	      4.18034436	      2.94789774	      2.47866208	      4.03236898	      4.52937896	      2.26028262	      1.50053932	      3.69260404	      5.61168710	      4.18974905	     22.75033641	     13.08238554	      3.66215289	      2.87092391	      4.15624803	     11.73685461	      9.61426816	     10.31348502	     14.03150391	      1.45419061	      1.42068222	      9.83067997	     12.25062073	      2.24742627	      3.13721809	     12.52659243	      3.68126662	      7.24248158	     10.26706147	      9.11845553	      1.97497202	      7.63019471	      5.72241017	      6.12611877	      2.68439089	      3.20648150	      3.22745938	      8.86506003	      4.12729814	      7.78258056	      7.28665601	      1.53422571	      5.67007104	      4.18034436	      2.94789774	      2.47866208	      4.03236898	      4.12479678	      2.26028262	      1.57381486	      3.69260404	      5.61168710	      4.18974905	     22.75033641	     13.08238554	      3.66215289	      2.87092391	      4.15624803	     10.80289356	      6.66012163	      7.64119419	      8.21591562	     14.25012064	      6.61688720	     31.58895422	     42.55595768	      2.80080247	      2.96811312	      8.55392558	      4.39525662	     12.59465617	      2.02380688	      5.34253105	      1.69656206	     25.24653667	     25.24653667	      9.09423788	      9.09423788	     26.88925846	     26.88925846	     98.92909254	     96.18385615	     31.03788583	    -15.11863221	      2.42997718	     40.67907400	    -98.92909254	    -96.18385615	    -31.03788583	      3.41437543	     -2.94725143	     -1.77033708	    103.15288291	     68.36485109	     18.90530419	     -6.19001536	     -2.34738667	     42.30140960	   -103.15288291	    -68.36485109	    -18.90530419	     -0.91889631	      1.94370873	     -2.05333384	    -22.55306751	    -38.71377744	      8.74617135	     -0.90376881	      0.41660525	     -0.48541012	     22.55306751	     38.71377744	     -8.74617135	      4.33786688	     -0.37501205	      9.52475688	      0.00000000	      0.00000000	      0.00000000	      0.00000000	      0.00000000	      0.00000000	      0.00000000	      0.00000000	      0.00000000	      0.00000000	      0.00000000	      0.00000000	     67.36448331	     49.29247816	     97.18491286	     60.07031781	      0.00000000	      0.00000000	      0.00000000	      5.04217309	      0.00000000	      0.00000000	     95.26279000	    -55.00000000	      0.00000000	      0.03000000	     -0.03000000	      0.00000000
      0.46249519	      7.62735007	      5.72045114	      6.12399551	      2.68351088	      3.20552944	      3.22625860	      4.23369179	      3.91375515	      6.28325243	      6.92381133	      1.53829861	      5.66810728	      4.17898637	      2.94689591	      2.47779964	      4.03081511	      4.53518665	      2.25953694	      1.50841774	      3.69134087	      5.60976161	      4.18828511	     22.74678360	     13.07838880	      3.66092623	      2.87034937	      4.15398057	     11.74654402	      9.63990639	     10.33834847	     14.05677701	      1.50535638	      1.42929688	      9.85984650	     12.18027327	      2.21031423	      3.06928282	     12.53824910	      3.70505919	      7.29163383	     10.28417251	      9.15482000	      2.00682628	      7.62735007	      5.72045114	      6.12399551	      2.68351088	      3.20552944	      3.22625860	      8.86092155	      4.12577414	      7.77913501	      7.28421381	      1.53372505	      5.66810728	      4.17898637	      2.94689591	      2.47779964	      4.03081511	      4.12383555	      2.25953694	      1.57329237	      3.69134087	      5.60976161	      4.18828511	     22.74678360	     13.07838880	      3.66092623	      2.87034937	      4.15398057	     10.79820342	      6.65778930	      7.63846664	      8.21299767	     14.24025661	      6.61230034	     31.57175525	     42.54920107	      2.79810194	      2.96606411	      8.55039518	      4.39314531	     12.58963350	      2.02318697	      5.34050998	      1.69597326	     25.23824144	     25.23824144	      9.09098395	      9.09098395	     26.88633557	     26.88633557	    100.46274703	     97.56121027	     31.45789901	    -15.32480307	      2.46720061	     41.31027232	   -100.46274703	    -97.56121027	    -31.45789901	      3.46205840	     -2.99156796	     -1.79962888	    105.77013069	     69.96344956	     19.64645513	     -6.46077384	     -2.40665673	     43.37523021	   -105.77013069	    -69.96344956	    -19.64645513	     -0.92924841	      1.99039661	     -2.10739804	    -22.95062105	    -39.39392493	      8.90023248	     -0.91995421	      0.42407463	     -0.49412246	     22.95062105	     39.39392493	     -8.90023248	      4.41445197	     -0.38171381	      9.69271960	      0.00000000	      0.00000000	      0.00000000	      0.00000000	      0.00000000	      0.00000000	      0.00000000	      0.00000000	      0.00000000	      0.00000000	      0.00000000	      0.00000000	     67.16976195	     49.11785324	     97.02112988	     59.02554066	      0.00000000	      0.00000000	      0.00000000	      3.76222194	      0.00000000	      0.00000000	     95.26279000	    -55.00000000	      0.00000000	      0.03000000	     -0.03000000	      0.00000000
      0.46514679	      7.62460109	      5.71855794	      6.12194360	      2.68266044	      3.20460938	      3.22509820	      4.22841394	      3.91034061	      6.27702144	      6.88427805	      1.50439573	      5.66620952	      4.17767400	      2.94592774	      2.47696619	      4.02931350	      4.53473007	      2.25881632	      1.50259501	      3.69012015	      5.60790083	      4.18687038	     22.74335024	     13.07452652	      3.65974079	      2.86979417	      4.15178822	     11.73817801	      9.62839800	     10.32106574	     14.04159114	      1.44475288	      1.42275481	      9.85616190	     12.11022890	      2.17802804	      3.00336631	     12.56060542	      3.72642158	      7.33781723	     10.31438075	      9.18565811	      2.03475289	      7.62460109	      5.71855794	      6.12194360	      2.68266044	      3.20460938	      3.22509820	      8.85692187	      4.12430138	      7.77580516	      7.28185366	      1.53324121	      5.66620952	      4.17767400	      2.94592774	      2.47696619	      4.02931350	      4.12290666	      2.25881632	      1.57278743	      3.69012015	      5.60790083	      4.18687038	     22.74335024	     13.07452652	      3.65974079	      2.86979417	      4.15178822	     10.79367084	      6.65553538	      7.63583081	      8.21017785	     14.23070552	      6.60785897	     31.55512642	     42.54266992	      2.79544388	      2.96405742	      8.54698346	      4.39110467	     12.58477498	      2.02258791	      5.33858958	      1.69541464	     25.23022487	     25.23022487	      9.08783940	      9.08783940	     26.88351094	     26.88351094	     97.78381091	     94.99309704	     30.63721255	    -14.92419082	      2.40135733	     40.20813533	    -97.78381091	    -94.99309704	    -30.63721255	      3.37068935	     -2.91169716	     -1.75084543	    105.02979755	     69.63084111	     19.63018219	     -6.46134335	     -2.39158282	     43.07387839	   -105.02979755	    -69.63084111	    -19.63018219	     -0.92326459	      1.97724993	     -2.09340164	    -23.16698881	    -39.78779214	      8.96726080	     -0.92882753	      0.42817023	     -0.49874757	     23.16698881	     39.78779214	     -8.96726080	      4.44975557	     -0.38553727	      9.78425560	      0.00000000	      0.00000000	      0.00000000	      0.00000000	      0.00000000	      0.00000000	      0.00000000	      0.00000000	      0.00000000	      0.00000000	      0.00000000	      0.00000000	     67.42582588	     49.42840049	     97.39067841	     59.90184385	      0.00000000	      0.00000000	      0.00000000	      4.58908204	      0.00000000	      0.00000000	     95.26279000	    -55.00000000	      0.00000000	      0.03000000	     -0.03000000	      0.00000000
      0.46779839	      7.62194454	      5.71672836	      6.11996065	      2.68183856	      3.20372023	      3.22397682	      4.23334966	      3.91303059	      6.27747605	      6.89425527	      1.51895263	      5.66437554	      4.17640571	      2.94499211	      2.47616075	      4.02786238	      4.53735387	      2.25811989	      1.50695904	      3.68894046	      5.60610259	      4.18550321	     22.74003228	     13.07079415	      3.65859517	      2.86925764	      4.14966851	     11.74214760	      9.64447127	     10.33382818	     14.05176637	      1.47103349	      1.42624112	      9.87357353	     12.04739390	      2.15178689	      2.94166002	     12.57787411	      3.74652270	      7.38282563	     10.33413906	      9.20409944	      2.05674936	      7.62194454	      5.71672836	      6.11996065	      2.68183856	      3.20372023	      3.22397682	      8.85305634	      4.12287813	      7.77258715	      7.27957280	      1.53277362	      5.66437554	      4.17640571	      2.94499211	      2.47616075	      4.02786238	      4.12200902	      2.25811989	      1.57229946	      3.68894046	      5.60610259	      4.18550321	     22.74003228	     13.07079415	      3.65859517	      2.86925764	      4.14966851	     10.78929054	      6.65335723	      7.63328360	      8.20745285	     14.22145766	      6.60355857	     31.53904898	     42.53635673	      2.79282618	      2.96209124	      8.54368643	      4.38913237	     12.58007533	      2.02200900	      5.33676686	      1.69488527	     25.22247757	     25.22247757	      9.08480055	      9.08480055	     26.88078126	     26.88078126	     98.19788739	     95.32907811	     30.74160819	    -14.97511816	      2.41123388	     40.37859945	    -98.19788739	    -95.32907811	    -30.74160819	      3.38207352	     -2.92323574	     -1.75924193	    106.61719524	     70.78153351	     19.97517417	     -6.57583861	     -2.42876462	     43.72578758	   -106.61719524	    -70.78153351	    -19.97517417	     -0.93884848	      2.00792448	     -2.12502031	    -23.46981100	    -40.31298496	      9.07548281	     -0.94097607	      0.43382433	     -0.50534923	     23.46981100	     40.31298496	     -9.07548281	      4.50441511	     -0.39069439	      9.91222478	      0.00000000	      0.00000000	      0.00000000	      0.00000000	      0.00000000	      0.00000000	      0.00000000	      0.00000000	      0.00000000	      0.00000000	      0.00000000	      0.00000000	     67.34338102	     49.36632798	     97.38286478	     59.43267480	      0.00000000	      0.00000000	      0.00000000	      3.92033657	      0.00000000	      0.00000000	     95.26279000	    -55.00000000	      0.00000000	      0.03000000	     -0.03000000	      0.00000000
